<?xml version="1.0" encoding="utf-8"?>
<!-- Generator: Adobe Illustrator 26.5.0, SVG Export Plug-In . SVG Version: 6.00 Build 0)  -->
<svg version="1.1"
	 id="svg3194" xmlns:sodipodi="http://sodipodi.sourceforge.net/DTD/sodipodi-0.dtd" xmlns:rdf="http://www.w3.org/1999/02/22-rdf-syntax-ns#" xmlns:cc="http://creativecommons.org/ns#" xmlns:svg="http://www.w3.org/2000/svg" xmlns:dc="http://purl.org/dc/elements/1.1/" xmlns:inkscape="http://www.inkscape.org/namespaces/inkscape"
	 xmlns="http://www.w3.org/2000/svg" xmlns:xlink="http://www.w3.org/1999/xlink" x="0px" y="0px" viewBox="0 0 125.3 39.3"
	 style="enable-background:new 0 0 125.3 39.3;" xml:space="preserve">
<sodipodi:namedview  bordercolor="#666666" borderopacity="1.0" fit-margin-bottom="0" fit-margin-left="0" fit-margin-right="0" fit-margin-top="0" id="base" inkscape:current-layer="layer1" inkscape:cx="62.173941" inkscape:cy="19.129976" inkscape:document-units="mm" inkscape:pageopacity="0.0" inkscape:pageshadow="2" inkscape:window-height="744" inkscape:window-maximized="1" inkscape:window-width="1280" inkscape:window-x="-4" inkscape:window-y="-4" inkscape:zoom="7.2136264" pagecolor="#ffffff" showgrid="false" units="px">
	</sodipodi:namedview>
<g id="layer1" transform="translate(-86.359335,-191.13228)" inkscape:groupmode="layer" inkscape:label="Layer 1">
	<path id="path3125" inkscape:connector-curvature="0" d="M168.8,200.9c-8.7,0-14.5,6.5-14.5,14.5c0,8.8,6.2,14.4,15.2,14.4
		c5.7,0,11.6-3.3,13.4-9.2h-8.9c-0.7,1.5-2.6,2.6-4.6,2.6c-3.1,0-5-2.3-5.3-5.6h19.4c0.2-0.7,0.2-1.5,0.2-2.2
		C183.6,208,178.9,200.9,168.8,200.9 M164,212.2c0.5-3,2.2-4.7,5.3-4.7c2.7,0,4.5,2.1,4.5,4.7H164z M143.2,201.8
		c-3.7,0-6.2,1.2-8.1,2.9v-12.2H125V229h10.1v-13.9c0-4.1,2.1-5.3,3.8-5.3c3,0,3.5,2.1,3.5,5.2V229h10.1v-18.2
		C152.6,204.7,148.2,201.8,143.2,201.8 M105.5,220.8c-5.6,0-7.4-5.1-7.4-10c0-4.9,1.8-10,7.4-10c4.9,0,6.1,4,6.4,5.4H123
		c-1-9.2-7.8-14.5-17.2-14.5c-11.2,0-19,8-19,19.1c0,10.8,7.1,19.1,19,19.1c10.5,0,17.4-7.8,17.4-15.2h-11.3
		C111.2,218.1,109.5,220.8,105.5,220.8 M185.6,229h10.1v-26.5h-10.1V229z M201.1,229h10.1v-36.5h-10.1V229z M185.6,201.5l10.6-9
		h-10.6V201.5z"/>
</g>
</svg>
