<?xml version="1.0" encoding="UTF-8"?>
<svg id="Layer_1" data-name="Layer 1" xmlns="http://www.w3.org/2000/svg" xmlns:xlink="http://www.w3.org/1999/xlink" viewBox="0 0 500 120" >
  <defs>
    <style>
      .cls-1 {
        fill: none;
      }

      .cls-2 {
        clip-path: url(#clippath);
      }

      .cls-3 {
        fill: #1b1b1b;
      }
    </style>
    <clipPath id="clippath">
      <rect class="cls-1" x="4.98" y="-10.18" width="490.04" height="130.17"/>
    </clipPath>
  </defs>
  <g id="g8">
    <g id="g10">
      <g class="cls-2">
        <g id="g18">
          <path id="path20" class="cls-3" d="M440.97,56.04v8.86h6.23v8.79c.02,.79-.02,1.63-.16,2.31-.25,1.64-1.8,4.43-6.22,4.43s-5.92-2.79-6.19-4.43c-.11-.68-.16-1.52-.16-2.31v-27.76c0-.98,.07-2.06,.27-2.87,.3-1.48,1.61-4.4,6.04-4.4,4.65,0,5.81,3.08,6.07,4.4,.17,.88,.18,2.34,.18,2.34v3.37h15.3v-1.99s.07-2.08-.12-4.02c-1.15-11.4-10.54-15-21.3-15s-19.98,3.64-21.32,15c-.12,1.04-.31,2.91-.31,4.02v25.54c0,1.11,.04,1.97,.24,4.01,1,11.08,10.6,15.01,21.35,15.01s20.35-3.93,21.36-15.01c.18-2.03,.2-2.89,.22-4.01v-16.28h-21.49Zm-105.49-26.65h-15.36v44.94c.02,.78,0,1.66-.13,2.31-.32,1.51-1.6,4.41-5.84,4.41s-5.5-2.9-5.79-4.41c-.15-.65-.17-1.52-.15-2.31V29.39h-15.36v43.54c-.02,1.12,.07,3.42,.13,4.02,1.06,11.35,10,15.03,21.17,15.03s20.13-3.68,21.21-15.03c.09-.6,.2-2.89,.13-4.02V29.39Zm-141.16,0l-7.66,47.48-7.66-47.48h-24.78l-1.31,60.75h15.18l.41-56.23,10.45,56.23h15.4l10.46-56.23,.41,56.23h15.22l-1.36-60.75h-24.75Zm-91.75,0l-11.25,60.75h16.41l8.48-56.23,8.28,56.23h16.3l-11.21-60.75h-27Zm286.61,48.91l-14.31-48.91h-22.54v60.11h14.91l-.87-50.47,15.36,50.47h21.62V29.39h-15.01l.83,48.91ZM251.24,45.2c-.27-1.2-.19-2.47-.05-3.14,.43-1.94,1.74-4.07,5.51-4.07,3.51,0,5.57,2.19,5.57,5.47v3.71h14.98v-4.23c0-13.09-11.73-15.14-20.23-15.14-10.7,0-19.44,3.53-21.03,13.38-.42,2.68-.53,5.06,.15,8.1,2.6,12.28,23.98,15.84,27.08,23.61,.55,1.47,.39,3.35,.11,4.45-.46,2.02-1.82,4.05-5.85,4.05-3.78,0-6.06-2.17-6.06-5.45v-5.83h-16.12v4.63c0,13.43,10.52,17.48,21.85,17.48s19.81-3.71,21.25-13.76c.69-5.19,.17-8.57-.11-9.85-2.51-12.6-25.3-16.38-27.02-23.41m-197.56-.15c-.29-1.22-.23-2.52-.06-3.19,.41-1.94,1.73-4.09,5.56-4.09,3.55,0,5.65,2.21,5.65,5.52v3.76h15.15v-4.27c0-13.21-11.91-15.32-20.5-15.32-10.79,0-19.61,3.58-21.22,13.5-.44,2.72-.52,5.12,.12,8.19,2.63,12.42,24.22,16.01,27.36,23.87,.59,1.46,.41,3.34,.12,4.49-.5,2.04-1.87,4.1-5.93,4.1-3.79,0-6.06-2.21-6.06-5.53l-.02-5.85h-16.3v4.65c0,13.58,10.67,17.67,22.08,17.67s19.99-3.74,21.46-13.91c.73-5.24,.18-8.65-.06-9.94-2.56-12.75-25.6-16.53-27.33-23.64"/>
        </g>
      </g>
    </g>
  </g>
</svg>