<?xml version="1.0" encoding="UTF-8"?>
<svg id="Layer_2" data-name="Layer 2" xmlns="http://www.w3.org/2000/svg" viewBox="0 0 774.09 183.27">
  <g id="Layer_2-2" data-name="Layer 2">
    <path d="m273.9,68.73c-.27.64-.51,1.25-.73,1.82-.22-.57-.48-1.21-.77-1.93l-13.18-31.19h-4.96l17.28,40.33.18.42h2.75l17.41-40.75h-4.8l-13.18,31.3Z"/>
    <rect x="303.31" y="39.6" width="4.36" height="36.86"/>
    <path d="m353.98,76.84l.93.02.11-3.46-.86-.1c-2.18-.26-4.23-1.38-6.1-3.31-.94-1.04-3.4-4.19-7.31-9.38,1.33-1.08,2.54-2.43,3.62-4.01,1.32-1.95,2-4.11,2-6.41,0-3.45-1.21-6.16-3.59-8.04-2.32-1.83-5.27-2.76-8.78-2.76-2.17,0-4.84.13-7.95.38l-.87.07v36.63h4.36v-14.05s4.73-.03,7.15-.02c4.05,5.6,6.73,9.11,7.96,10.43,1.32,1.42,2.69,2.44,4.05,3.05,1.37.61,3.14.93,5.27.97Zm-18.15-18.38c-1.94,0-6.28-.05-6.28-.05v-14.84c1.56-.1,2.95-.15,4.13-.15,2.47,0,4.49.59,6,1.75,1.44,1.1,2.17,2.75,2.17,4.91s-.74,4.22-2.2,5.91c-1.4,1.62-2.72,2.48-3.82,2.48Z"/>
    <polygon points="356.29 43.69 368.15 43.69 368.15 76.46 372.46 76.46 372.46 43.69 384.31 43.69 384.31 39.6 356.29 39.6 356.29 43.69"/>
    <path d="m422.2,60.43c0,8.51-3.48,12.48-10.97,12.48s-10.97-3.96-10.97-12.48v-20.83h-4.37v20.83c0,5.1,1.27,9.16,3.79,12.09,2.55,2.97,6.43,4.48,11.55,4.48s9-1.51,11.55-4.48c2.51-2.93,3.78-6.99,3.78-12.09v-20.83h-4.36v20.83Z"/>
    <path d="m452.38,39.39l-15.45,37.08h4.58l5.01-12.13h14.26l5.07,12.13h4.79l-15.56-37.08h-2.71Zm-4.21,20.96l4.85-11.64c.2-.5.41-1.05.63-1.65.2.51.44,1.08.7,1.72l4.8,11.58h-10.97Z"/>
    <polygon points="506.21 74.12 488.28 74.12 488.28 37.59 484.03 37.59 484.03 78.13 506.21 78.13 506.21 74.12"/>
    <path d="m571.43,78.3l.11-3.51-.86-.1c-2.53-.29-4.84-1.54-6.84-3.68-.56-.63-1.82-2.21-3.76-4.72-1.71-2.21-3.17-4.15-4.37-5.77,1.47-1.18,2.83-2.67,4.05-4.46,1.47-2.16,2.21-4.53,2.21-7.05,0-3.73-1.32-6.68-3.91-8.74-2.53-2.01-5.78-3.03-9.64-3.03-2.3,0-5.21.13-8.64.38l-.87.06v40.2h4.47v-15.5s5.24-.03,8.17-.02c4.76,6.53,7.8,10.49,9.04,11.78,1.32,1.38,2.73,2.42,4.2,3.09,1.48.68,3.4,1.05,5.72,1.08h.93Zm-20.96-20c-2.19,0-7.09-.05-7.09-.05v-16.66c1.76-.11,3.35-.16,4.72-.16,2.83,0,5.11.65,6.79,1.93,1.6,1.23,2.41,3.08,2.41,5.5s-.83,4.74-2.47,6.63c-1.6,1.86-3.07,2.8-4.35,2.8Z"/>
    <polygon points="584.55 58.46 597.06 58.46 597.06 54.48 584.55 54.48 584.55 43.64 598.4 43.64 598.4 39.6 580.19 39.6 580.19 76.46 598.94 76.46 598.94 72.32 584.55 72.32 584.55 58.46"/>
    <path d="m636.07,76.46h4.79l-15.55-37.08h-2.71l-15.44,37.08h4.58l5.02-12.13h14.26l5.07,12.13Zm-17.69-16.11l4.85-11.64c.2-.49.41-1.05.63-1.65.21.51.44,1.08.7,1.72l4.8,11.58h-10.97Z"/>
    <polygon points="672.51 72.32 656.45 72.32 656.45 39.6 652.09 39.6 652.09 76.46 672.51 76.46 672.51 72.32"/>
    <rect x="684.43" y="39.6" width="4.36" height="36.86"/>
    <polygon points="700.7 43.69 712.56 43.69 712.56 76.46 716.87 76.46 716.87 43.69 728.73 43.69 728.73 39.6 700.7 39.6 700.7 43.69"/>
    <path d="m769.25,37.59l-11.59,19.81c-.35.62-.65,1.14-.89,1.58-.22-.43-.5-.98-.84-1.65l-11.59-19.75h-5.02l15.3,26.04v14.5h4.18v-14.38l15.3-26.16h-4.84Z"/>
    <polygon points="255.08 106.34 269.02 106.34 269.02 145.11 273.43 145.11 273.43 106.34 287.37 106.34 287.37 102.28 255.08 102.28 255.08 106.34"/>
    <polygon points="328.08 120.12 303.73 120.1 303.73 104.13 299.44 104.13 299.44 143.16 303.73 143.16 303.73 124.39 328.08 124.41 328.08 143.16 332.37 143.16 332.37 104.13 328.08 104.13 328.08 120.12"/>
    <polygon points="355.75 123.92 369.12 123.92 369.12 120.03 355.75 120.03 355.75 108.08 370.56 108.08 370.56 104.13 351.46 104.13 351.46 143.16 371.14 143.16 371.14 139.1 355.75 139.1 355.75 123.92"/>
    <path d="m444.08,103.9l-16.35,39.26h4.48l5.36-12.96h15.49l5.42,12.96h4.72l-16.47-39.26h-2.65Zm-4.9,22.41l5.29-12.7c.25-.64.53-1.38.83-2.22.26.65.57,1.42.93,2.29l5.23,12.63h-12.29Z"/>
    <rect x="513" y="104.13" width="4.29" height="39.03"/>
    <polygon points="540.68 123.92 554.05 123.92 554.05 120.03 540.68 120.03 540.68 108.08 555.49 108.08 555.49 104.13 536.4 104.13 536.38 143.16 556.06 143.16 556.06 139.1 540.68 139.1 540.68 123.92"/>
    <path d="m586.84,123.87c-.81-.61-2.26-1.58-4.43-2.99-2.08-1.34-3.87-2.58-5.15-3.86-4.45-4.46-1.21-8.59,0-9.57,1.26-1.01,2.95-1.56,5.03-1.61,3.23-.08,6.15.45,8.64,1.57l.61.27,1.51-3.53-.58-.26c-2.89-1.33-6.16-1.96-9.72-1.86-3.62.09-6.48,1.01-8.51,2.73-1.4,1.19-2.35,2.56-2.88,4.24-.26.8-1.78,6.4,2.44,10.62,1.11,1.11,2.19,1.92,3.04,2.54.83.61,2.3,1.61,4.49,3.04,2.09,1.37,3.78,2.66,5.02,3.84,1.68,1.56,2.56,3.3,2.61,5.18.06,2.17-.7,3.9-2.24,5.13-1.6,1.27-3.93,1.96-6.92,2.04-2.96.06-5.91-.77-8.65-2.52l-.55-.36-2.12,3.28.49.37c2.79,2.05,6.23,3.09,10.22,3.09.2,0,.41,0,.61,0,4.25-.11,7.6-1.13,9.96-3.04,2.41-1.95,3.58-4.78,3.48-8.41-.07-2.82-1.23-5.31-3.44-7.4-1.14-1.04-2.14-1.89-2.97-2.52Z"/>
    <path d="m494.69,106.8c-2.44-1.93-5.56-2.92-9.27-2.92-2.31,0-5.16.14-8.48.41l-.75.06v38.79h4.29v-15s2.9-.03,5.49-.03c6.32,0,9.4-3.82,10.63-5.91,1.26-2.14,1.86-4.53,1.86-6.95,0-3.63-1.27-6.47-3.77-8.45Zm-2.5,14.73c-1.56,1.8-3.59,2.75-6.55,2.75-2.28,0-5.16.03-5.16.03v-16.31c1.75-.11,3.29-.17,4.59-.17,2.68,0,5.19.64,6.84,1.9,1.58,1.22,2.39,3.03,2.39,5.4s-.53,4.57-2.11,6.4Z"/>
    <path d="m411.17,136.53c-1.01-1.12-3.68-4.54-7.93-10.18,1.46-1.17,2.79-2.63,3.97-4.37,1.39-2.05,2.1-4.32,2.1-6.74,0-3.63-1.27-6.47-3.77-8.45-2.44-1.93-5.56-2.92-9.27-2.92-2.31,0-5.16.14-8.48.4l-.75.06v38.79h4.29v-15s5.25-.04,7.92-.03c4.36,6.02,7.23,9.79,8.55,11.21,1.4,1.5,2.84,2.58,4.27,3.22,1.44.63,3.31.98,5.56,1.02h.81s.11-3.33.11-3.33l-.75-.09c-2.37-.28-4.6-1.5-6.63-3.59Zm-12.94-12.25c-2.13,0-6.9.03-6.9.03v-16.31c1.75-.12,3.29-.17,4.59-.17,2.68,0,4.88.64,6.53,1.9,1.58,1.22,2.38,3.03,2.38,5.4s-.81,4.6-2.39,6.43c-1.56,1.8-2.98,2.71-4.22,2.71Z"/>
  </g>
  <g id="Layer_3" data-name="Layer 3">
    <path d="m239.83,163.47c-1.81-2.62-3.64-4.82-5.44-6.55-5.16-4.93-10.07-9.09-12.09-10.77-.35-1.96-1.2-6.05-2.89-11.54-1.19-3.84-2.59-7.7-4.16-11.49-1.12-2.71-2.35-5.36-3.64-7.98,3.26-9.07,5.04-18.84,5.04-29.02C216.64,38.64,178,0,130.5,0,91.81,0,58.99,25.65,48.16,60.84c-1.91.82-3.69,1.66-5.33,2.53-5.27,2.81-9.88,6.13-14.07,10.15-7.06,6.76-11.22,13.89-14.57,19.62-1.4,2.4-2.62,4.48-3.79,6.09-1.08,1.48-2.15,2.89-3.18,4.26C3.13,108.88.18,112.77,0,116.22c-.07,1.36.27,2.56.99,3.56.85,1.17,2.49,2.56,5.55,2.56s6.8-1.39,11.39-3.47c.46-.21.9-.41,1.32-.6,4.13-1.89,6.41-2.94,11.67-3.41,2.18-.2,6.12-.93,12.06-2.23,1.71-.38,3.46-.77,5.18-1.17,10.44,33.91,41.29,58.96,78.15,60.73,6.6.45,12.84-.02,18.65-1.12,19.83-3.37,37.36-13.54,50.13-28.01,1.22,1.47,2.33,2.94,3.29,4.37.57.83,1.08,1.66,1.55,2.46.19,2.16.76,8.59,1.33,12.58.35,2.48.84,4.27,1.52,5.63,1.59,3.15,4.08,3.62,5.42,3.62,1.15,0,2.33-.32,3.6-.97,1.05-.55,2.9-.87,4.95-.87,3.78,0,7.66,1.05,10.38,2.83.36.24.76.51,1.24.87,1.78,1.3,3.52,2.85,5.21,4.34,3.53,3.13,6.09,5.39,8.78,5.39.75,0,1.46-.17,2.1-.52,1.02-.55,1.74-1.51,2.03-2.7,1.23-5.07-6.36-16.12-6.69-16.59Zm-10.38,5.66c-1.76-1.14-3.75-1.98-5.79-2.55,3.04-1.69,7.51-3.37,11.77-1.97.31.42.61.84.91,1.27,4.46,6.45,6.41,12.07,6.06,13.17-.88.2-4.08-2.63-6.01-4.33-1.68-1.49-3.58-3.17-5.51-4.58h0c-.54-.4-1-.72-1.44-1Zm-23.99-7.28c-.66-4.62-1.36-12.97-1.36-13.05l-.02-.21-.1-.18c-.44-.8-.93-1.61-1.46-2.44.13-.06.24-.13.37-.19.19-.1.38-.2.57-.29.32-.16.62-.32.92-.48.16-.08.33-.17.48-.26.43-.23.84-.45,1.24-.68.06-.03.12-.07.19-.1.37-.21.74-.42,1.09-.62.14-.08.27-.16.4-.23.26-.15.51-.3.76-.45.13-.08.27-.16.4-.24.25-.15.49-.3.72-.45.11-.07.22-.14.33-.21.33-.21.65-.42.96-.62,0,0,.02-.01.03-.02.3-.2.59-.39.87-.59.09-.06.17-.12.26-.18.2-.14.39-.28.58-.41.09-.06.17-.12.26-.19.19-.14.37-.27.54-.4.07-.05.14-.1.2-.15.47-.36.9-.71,1.29-1.04.05-.04.1-.08.15-.12.14-.12.28-.24.41-.36.05-.05.1-.09.15-.14.05-.04.1-.09.14-.13,1.01,3.42,1.64,6.18,2.02,8.02l-.16-.02c-.02.14-1.86,13.52-10.27,21.79-1.31-.9-1.78-4.24-1.94-5.36Zm9.3-26.12c-.06.06-.13.12-.19.18-.09.09-.19.17-.29.26-.07.07-.15.13-.23.2-.1.09-.2.17-.3.27-.09.07-.18.15-.26.22-.11.09-.22.18-.33.27-.1.08-.2.16-.3.24-.12.09-.24.19-.36.29-.11.08-.21.16-.32.25-.13.1-.27.2-.41.3-.12.09-.23.17-.35.26-.15.1-.3.21-.45.32-.12.09-.25.17-.38.26-.16.11-.34.23-.51.34-.13.09-.26.18-.39.26-.19.13-.4.26-.6.39-.13.08-.25.16-.38.24-.31.19-.63.39-.96.59-.08.05-.16.09-.24.14-.32.19-.65.39-1,.59-.15.08-.3.17-.45.26-.26.15-.51.29-.78.44-.18.1-.37.2-.55.3-.26.14-.51.28-.78.42-.2.11-.4.21-.61.32-.27.14-.54.29-.82.43-.21.11-.43.22-.65.33-.15.08-.31.16-.47.23-4.85-6.93-12.18-14.13-20.81-20.43.03-.03.06-.05.09-.08.14-.12.27-.24.41-.35.22-.2.45-.39.67-.6.15-.14.3-.28.45-.41.21-.19.42-.39.63-.59.15-.14.3-.29.45-.43.21-.21.42-.42.64-.63.14-.14.28-.28.42-.43.24-.24.48-.49.71-.74.11-.12.22-.23.33-.35.34-.37.68-.74,1.02-1.12.1-.11.19-.22.29-.33.25-.28.49-.56.73-.85.13-.16.27-.32.4-.48.13-.16.27-.32.4-.48.46.11.93.23,1.39.35.44.11.88.22,1.32.34.57.15,1.13.32,1.69.49.44.13.88.25,1.31.39.58.18,1.15.38,1.73.57.42.14.84.27,1.26.42.62.22,1.23.45,1.85.68.38.14.75.27,1.13.42.78.3,1.56.63,2.33.95.21.09.41.17.62.25.98.42,1.96.86,2.93,1.31.31.15.62.31.93.46.66.32,1.32.63,1.98.97.39.2.78.41,1.17.62.52.28,1.05.55,1.57.83,1.4,3.38,2.65,6.82,3.72,10.24-.03.03-.06.06-.09.08-.11.11-.21.21-.33.32Zm-172.06-27.39s-.04-.06-.06-.09c-.17-.25-.35-.51-.53-.79-.04-.05-.07-.1-.1-.16-.2-.3-.4-.62-.61-.96-.04-.07-.08-.13-.12-.2-.21-.34-.42-.71-.64-1.08-.04-.06-.07-.13-.11-.19-.23-.4-.46-.81-.69-1.25-.02-.03-.04-.07-.05-.1-.23-.43-.47-.89-.7-1.36-.02-.04-.05-.09-.07-.13-.24-.47-.47-.96-.71-1.47-.04-.09-.08-.17-.12-.26-.23-.5-.46-1.02-.69-1.56-.04-.1-.08-.19-.12-.29-.23-.55-.46-1.12-.69-1.7,0-.02-.01-.04-.02-.06.28-.08.57-.17.85-.25.23-.06.45-.13.68-.19.7-.19,1.39-.37,2.08-.54.54-.13,1.09-.25,1.65-.36.21-.04.42-.08.64-.12.35-.07.71-.14,1.07-.2.26-.05.53-.09.79-.13.32-.05.64-.11.97-.16.27-.04.56-.08.84-.12.32-.04.64-.09.96-.13.29-.04.58-.07.86-.1.33-.04.65-.08.98-.11.29-.03.58-.05.87-.08.34-.03.67-.06,1.01-.09.29-.02.58-.04.87-.06.35-.02.69-.05,1.04-.07.28-.02.57-.03.86-.04.36-.02.72-.04,1.09-.05.28,0,.56-.02.84-.02.37-.01.75-.02,1.13-.03.27,0,.54,0,.82,0,.39,0,.78,0,1.17,0,.26,0,.53,0,.79,0,.4,0,.8,0,1.2.02.26,0,.52.02.78.02.41.01.81.02,1.22.04.26.01.52.02.78.04.41.02.82.04,1.23.07.26.02.52.04.79.05.41.03.81.06,1.21.09.27.02.54.05.81.07.39.03.78.07,1.17.11.29.03.58.06.87.09.26.03.52.06.78.09.21.65.43,1.3.66,1.95.09.25.16.5.25.75.36,1.01.73,2.01,1.12,3.01.09.22.18.43.26.65.31.78.63,1.56.96,2.33.15.34.31.69.46,1.03.29.64.58,1.29.88,1.93.18.38.36.75.54,1.12.3.6.6,1.21.9,1.81.2.38.4.76.6,1.14.32.59.64,1.18.97,1.77.21.37.42.75.63,1.12.35.6.7,1.2,1.06,1.8.21.35.41.7.63,1.04.07.11.13.23.2.34-12.85-4.6-19.14-11.75-19.2-11.83l-.4-.46-.58.15c-.09.02-9.25,2.32-17.58,4.17Zm-6.42-7.47s0,0,0,0c.23.5.46.99.69,1.46.04.09.09.18.13.27.22.45.44.89.66,1.31.04.07.07.14.11.21.21.4.42.79.63,1.16.02.03.04.07.06.1.22.4.44.77.65,1.14.04.07.08.13.12.19.21.36.42.7.63,1.02.02.03.04.05.05.08.2.31.39.62.58.9.01.02.03.05.04.07-4.91,1.06-8.31,1.68-10.11,1.84-5.98.54-8.79,1.83-13.05,3.79l-1.31.59c-3.37,1.53-7.15,3.09-9.65,3.09-1.03,0-1.73-.26-2.12-.8-.1-.14-.16-.31-.18-.51.17-.16.34-.33.51-.49.21-.21.42-.41.64-.62.23-.22.48-.45.72-.67.22-.21.44-.41.67-.62.26-.24.53-.47.79-.71.23-.21.45-.41.69-.62.28-.25.58-.5.87-.75.23-.2.46-.4.7-.6.32-.27.66-.54.99-.81.23-.18.44-.37.67-.55.4-.32.81-.64,1.23-.96.18-.14.35-.27.52-.41.6-.45,1.21-.91,1.83-1.36.15-.11.31-.21.46-.32.48-.34.96-.69,1.46-1.02.24-.17.49-.33.74-.49.42-.28.84-.56,1.26-.83.28-.18.57-.35.86-.53.41-.25.81-.51,1.23-.75.31-.18.62-.36.93-.54.41-.24.82-.47,1.23-.71.33-.18.66-.36,1-.53.41-.22.83-.45,1.25-.66.35-.18.7-.35,1.05-.52.42-.21.84-.42,1.27-.61.36-.17.73-.33,1.1-.49.43-.19.86-.38,1.3-.57.38-.16.76-.31,1.15-.46.44-.18.88-.35,1.33-.52.39-.15.79-.29,1.19-.43.3-.11.61-.21.92-.32.01.04.03.07.04.1.21.55.43,1.08.64,1.6.05.11.09.22.14.33.22.53.45,1.04.67,1.54Zm-30.35,11.62c1.17-1.86,2.84-4.06,4.64-6.43,1.05-1.38,2.13-2.81,3.23-4.32,1.31-1.79,2.57-3.95,4.03-6.45,2.97-5.09,6.62-11.33,12.39-17.26.01.11.03.23.04.34.03.31.07.62.11.93.06.53.13,1.06.21,1.58.05.32.09.64.14.95.08.52.17,1.04.25,1.55.05.3.11.61.16.92.1.55.21,1.09.32,1.63.05.26.11.53.16.79.15.7.32,1.4.49,2.09.02.09.04.19.07.28.2.79.41,1.58.64,2.35.06.2.12.39.18.59.17.57.34,1.14.53,1.71.09.26.17.52.26.78.1.3.2.61.31.91h0s0,.01,0,.01c-.38.13-.75.27-1.12.4-.27.09-.54.19-.8.29-.75.28-1.49.57-2.22.87-.06.02-.11.04-.17.07-.79.33-1.56.67-2.32,1.01-.25.11-.48.23-.73.34-.52.24-1.04.49-1.54.74-.28.14-.55.28-.82.42-.48.25-.95.49-1.41.74-.26.14-.53.28-.78.43-.49.28-.98.55-1.46.84-.21.12-.43.24-.63.37-.68.41-1.35.82-2.01,1.23-.07.04-.14.09-.21.13-.59.38-1.17.76-1.74,1.14-.21.14-.41.29-.62.43-.42.29-.84.58-1.26.88-.22.16-.44.32-.66.48-.4.29-.78.58-1.17.87-.2.15-.41.31-.61.46-.42.32-.84.65-1.25.97-.14.12-.29.23-.43.34-.55.44-1.08.88-1.6,1.32-.09.08-.18.15-.27.23-.42.36-.84.72-1.25,1.07-.16.14-.32.28-.48.43-.2.18-.4.36-.6.53Zm192.2-11.79c4.68,6.71,8.74,13.93,12.08,21.51-.1-.05-.2-.1-.29-.15-.31-.16-.61-.31-.92-.46-.63-.32-1.27-.63-1.9-.93-.35-.17-.7-.33-1.05-.49-.6-.28-1.21-.55-1.82-.82-.35-.15-.71-.31-1.07-.46-.64-.27-1.27-.53-1.91-.78-.32-.13-.64-.26-.96-.38-.87-.33-1.74-.65-2.61-.96-.09-.03-.18-.07-.26-.1-.95-.33-1.91-.64-2.86-.94-.32-.1-.64-.19-.96-.29-.65-.19-1.29-.38-1.94-.56-.38-.1-.75-.2-1.13-.3-.31-.08-.63-.17-.94-.25h0s-.02-.02-.02-.02c.28-.37.56-.73.83-1.1.09-.12.17-.23.25-.35.19-.25.37-.51.55-.76.09-.13.19-.26.28-.39.17-.25.35-.49.51-.74.08-.12.17-.24.25-.36.21-.31.42-.62.62-.92.03-.05.07-.1.1-.15.23-.35.46-.7.68-1.04.07-.11.14-.22.21-.34.15-.23.3-.47.44-.7.08-.13.16-.25.23-.38.14-.22.27-.44.4-.66.07-.12.14-.23.21-.35.15-.25.3-.51.45-.75.04-.07.08-.14.12-.21.18-.31.36-.62.53-.92.05-.09.1-.17.15-.27.12-.21.24-.43.35-.64.06-.1.11-.2.16-.3.11-.2.21-.39.31-.58.05-.09.1-.18.15-.27.12-.22.23-.43.34-.64.02-.05.05-.09.07-.13.12-.24.24-.47.36-.69Zm-13.59,16.64c-.11.12-.21.24-.32.35-.51.55-1.02,1.09-1.54,1.62-.09.09-.18.18-.27.27-.49.49-.98.96-1.48,1.42-.07.06-.13.12-.2.19-.53.49-1.07.96-1.61,1.41-.06.05-.11.09-.17.14-4.75-3.34-9.69-6.28-14.73-8.75.11,0,.22-.02.33-.03.55-.04,1.11-.07,1.67-.09.26-.01.51-.03.77-.04.82-.03,1.66-.04,2.51-.04.71,0,1.43.01,2.15.03.23,0,.47.02.7.03.49.02.97.04,1.46.07.28.02.56.04.83.05.45.03.89.06,1.34.1.29.02.59.05.89.08.43.04.87.08,1.3.13.3.03.6.07.91.11.43.05.86.11,1.29.17.31.04.61.09.92.13.43.07.86.13,1.28.21.31.05.61.1.92.16.43.08.86.16,1.29.24.31.06.61.12.92.18.13.03.26.06.39.08,0,0,0,0,0,0-.51.61-1.03,1.19-1.55,1.77Zm-66.24-18.86c-.24.72-.46,1.44-.67,2.16-.05.17-.1.34-.14.52-.16.55-.31,1.1-.45,1.65-.06.25-.12.51-.18.76-.08.31-.16.63-.23.95-7.17-.41-14.26-.88-16.1-1-.03-.03-.07-.07-.1-.1-.06-.22-.11-.45-.17-.68-.04-.19-.09-.36-.13-.55-.07-.3-.12-.61-.18-.91-.03-.18-.07-.34-.1-.52-.07-.41-.13-.83-.19-1.25-.01-.09-.03-.17-.04-.26-.07-.52-.13-1.05-.18-1.59-.02-.19-.03-.38-.05-.57-.03-.36-.06-.72-.08-1.09-.02-.24-.02-.48-.03-.72-.02-.33-.03-.66-.04-1,0-.26-.01-.53-.01-.8,0-.33-.01-.65-.01-.98,0-.28,0-.56,0-.84,0-.33,0-.65.02-.99,0-.29.02-.58.03-.88.01-.33.03-.66.04-1,.01-.3.03-.6.05-.91.02-.33.04-.67.07-1.01.02-.31.05-.62.08-.93.03-.34.06-.68.1-1.02.03-.32.06-.63.1-.95.04-.34.08-.69.12-1.03.04-.32.08-.64.12-.96.05-.35.1-.7.15-1.04.05-.32.09-.64.14-.96.06-.35.12-.71.18-1.06.05-.32.11-.63.17-.95.07-.36.14-.72.21-1.08.06-.31.12-.63.18-.94.02-.08.03-.15.05-.23.28.24.56.47.83.71.39.34.78.68,1.16,1.03.49.45.97.9,1.46,1.36.37.35.75.71,1.12,1.07.48.47.95.96,1.42,1.45.35.37.71.73,1.06,1.1.48.51.94,1.03,1.41,1.56.33.37.66.73.98,1.1.49.57.97,1.16,1.45,1.74.28.34.57.68.85,1.03.6.75,1.19,1.53,1.77,2.3.15.19.3.38.44.58.72.97,1.42,1.97,2.11,2.98.22.33.43.66.65.99.42.63.83,1.26,1.24,1.91-.17.46-.33.93-.49,1.4-.05.16-.11.31-.16.47Zm-36.58,16.15c-.58-.94-1.14-1.89-1.68-2.84-.14-.24-.27-.49-.4-.74-.4-.71-.79-1.43-1.17-2.15-.19-.36-.36-.72-.55-1.08-.31-.61-.62-1.22-.92-1.84-.19-.4-.38-.8-.56-1.21-.27-.58-.54-1.16-.79-1.74-.19-.42-.36-.85-.54-1.28-.24-.57-.48-1.13-.7-1.7-.18-.44-.34-.88-.51-1.33-.21-.56-.42-1.12-.63-1.68-.16-.45-.32-.9-.47-1.36-.1-.3-.2-.59-.3-.89.14.02.28.04.42.06.33.05.66.1.99.15.42.07.83.13,1.25.2.33.06.66.11.98.17.4.07.8.15,1.2.22.33.06.65.13.97.2.39.08.77.16,1.15.25.32.07.63.14.95.22.37.09.74.18,1.11.27.31.08.62.15.92.23.36.1.71.19,1.06.29.3.08.6.17.89.25.34.1.68.2,1.02.31.28.09.57.18.85.27.33.11.66.22.98.33.27.09.54.19.8.28.32.12.64.24.95.36.25.09.5.19.75.29.32.13.62.26.93.39.23.1.46.19.68.29.32.14.63.29.94.44.19.09.38.18.57.27.39.2.77.4,1.14.6.09.05.18.09.27.14.45.25.88.51,1.29.77.14.09.26.18.39.26.27.18.54.35.8.53.15.11.29.22.43.32.22.17.44.33.65.5.14.12.27.23.4.35.16.14.31.27.46.41.07.24.14.48.21.72-.08,1.57.09,5.65,2.66,12.9.15.43.28,1.02.04,1.36-.27.38-1.08.62-2.11.62-.3,0-.51-.02-.58-.03-5.38-.34-10.6-1.26-15.5-2.74-.43-.65-.85-1.31-1.26-1.97-.14-.23-.29-.45-.43-.68Zm-10.65-24.53c-.03-.12-.06-.24-.1-.36-.21-.81-.42-1.61-.6-2.4-.02-.1-.04-.2-.07-.29-.19-.81-.36-1.61-.52-2.4-.01-.06-.02-.13-.04-.19-.16-.82-.32-1.63-.45-2.42,0-.02,0-.04,0-.06-.14-.81-.26-1.61-.38-2.4,0-.02,0-.05-.01-.07-.11-.77-.21-1.54-.29-2.28,0-.05-.01-.1-.02-.16-.08-.73-.15-1.44-.21-2.14,0-.07-.01-.14-.02-.21-.06-.68-.11-1.35-.15-2.01,0-.08,0-.16-.02-.23-.04-.65-.07-1.28-.09-1.9,0-.08,0-.16,0-.24-.02-.61-.03-1.21-.04-1.8,0-.08,0-.15,0-.23,0-.58,0-1.15,0-1.71,0-.07,0-.14,0-.21,0-.55.02-1.09.04-1.61,0-.06,0-.11,0-.17.02-.52.05-1.04.08-1.53,0-.04,0-.09,0-.13.03-.5.07-.98.1-1.44,0-.03,0-.05,0-.08.04-.47.08-.93.13-1.36,0,0,0-.01,0-.02.04-.43.09-.84.14-1.23,0-.01,0-.03,0-.05l.2-.05c.14.03.28.07.43.11.23.06.46.12.71.18.2.05.42.12.63.18.24.07.48.13.74.21.23.07.48.14.72.22.26.08.51.15.77.24.26.08.54.18.81.26.26.09.52.17.8.26.3.1.61.21.91.32.27.09.52.18.8.28.34.12.69.26,1.04.4.26.1.51.19.77.3.41.16.83.34,1.25.52.22.09.43.17.65.27.65.28,1.31.57,1.98.88,0,0,.02,0,.02.01.67.31,1.34.63,2.03.97.21.1.42.22.63.32.49.25.99.5,1.49.76.26.14.53.29.8.44.46.25.91.5,1.38.76.3.17.6.35.9.53.44.26.88.51,1.32.79.32.19.63.4.95.6.43.28.87.55,1.31.83.33.22.66.45.99.67.43.29.87.58,1.3.89.34.24.68.5,1.02.74.43.31.86.62,1.29.95.35.26.69.54,1.04.81.35.27.7.55,1.05.83-.08.35-.15.69-.22,1.04-.04.21-.09.43-.13.64-.13.67-.26,1.33-.38,2,0,0,0,0,0,.01-.12.67-.23,1.34-.33,2.01-.03.21-.06.42-.09.63-.07.46-.13.91-.19,1.37-.03.25-.06.49-.09.74-.05.42-.1.83-.15,1.25-.03.25-.05.51-.08.76-.04.41-.08.82-.11,1.23-.02.24-.04.48-.06.72-.03.43-.06.86-.09,1.29-.01.21-.03.42-.04.63-.03.54-.05,1.06-.07,1.59,0,.09,0,.19-.01.29-.02.62-.03,1.24-.03,1.85,0,.15,0,.3,0,.45,0,.45,0,.9.02,1.34,0,.21.01.41.02.62.01.38.03.75.05,1.13.01.22.03.43.04.64.02.35.05.7.08,1.05.02.21.04.42.06.63.03.35.07.69.12,1.03.02.19.05.38.07.57.05.38.11.74.17,1.11,0,.04.01.08.02.12l-.28-.27.14.5c-.31-.22-.63-.43-.96-.64-.1-.06-.21-.12-.31-.19-.32-.2-.65-.4-1-.59-.16-.09-.33-.18-.49-.27-.3-.16-.6-.33-.92-.49-.19-.1-.37-.19-.56-.28-.31-.15-.63-.31-.96-.45-.2-.09-.39-.18-.59-.27-.35-.15-.7-.3-1.06-.45-.19-.08-.37-.16-.57-.24-.45-.18-.91-.36-1.38-.53-.11-.04-.21-.08-.32-.12-.58-.21-1.18-.42-1.79-.62-.16-.05-.32-.1-.48-.15-.46-.15-.92-.29-1.39-.43-.23-.07-.46-.13-.69-.2-.42-.12-.84-.24-1.27-.35-.25-.07-.5-.13-.75-.19-.43-.11-.86-.22-1.29-.32-.25-.06-.51-.12-.76-.18-.47-.11-.94-.21-1.41-.31-.23-.05-.46-.1-.69-.14-.62-.12-1.24-.24-1.88-.36-.09-.02-.19-.04-.28-.05-.73-.13-1.47-.25-2.22-.36-.21-.03-.43-.06-.64-.09-.42-.06-.84-.13-1.27-.18-.02-.08-.05-.15-.07-.23-.24-.81-.47-1.62-.69-2.41Zm51.93-40.96c.19.27.39.55.6.86.06.09.13.19.19.28.16.23.32.47.49.71.09.13.18.26.26.4.16.23.31.46.47.71.1.15.2.31.31.47.16.24.31.48.47.73.11.18.23.36.35.54.16.25.31.5.48.76.12.2.25.4.37.6.16.26.32.53.49.81.13.21.25.42.38.64.17.28.34.57.5.87.13.22.26.44.39.67.17.31.35.62.53.94.13.23.25.45.38.69.18.34.37.68.55,1.03.12.23.24.45.36.68.21.4.42.81.63,1.22.09.19.19.37.28.55.3.61.61,1.23.91,1.86.03.07.06.14.09.21.27.56.53,1.14.8,1.72.09.21.18.42.28.63.2.45.4.91.59,1.37.11.25.21.51.32.76.14.33.27.67.41,1-.2.22-.39.44-.58.67-.16.19-.33.38-.49.56-.29.33-.57.67-.85,1-.14.17-.28.33-.42.5-.35.42-.68.83-1.02,1.25-.07.08-.14.17-.2.25-.4.51-.8,1.01-1.18,1.52-.09.12-.18.24-.27.36-.29.39-.58.77-.86,1.16-.13.18-.26.36-.39.54-.24.33-.47.66-.7.99-.14.2-.28.4-.42.61-.21.31-.42.62-.63.93-.14.21-.28.43-.42.64-.2.3-.39.6-.58.91-.14.22-.27.43-.41.65-.19.3-.37.6-.56.91-.13.22-.26.43-.39.65-.18.31-.36.61-.53.92-.12.22-.25.43-.37.65-.17.31-.34.62-.51.93-.11.21-.23.42-.34.63-.17.33-.34.66-.51.99-.1.19-.2.39-.3.58-.18.37-.36.74-.54,1.11-.07.15-.15.31-.22.47-.48,1.02-.93,2.05-1.35,3.07l-.02-.03v.02c-.2-.29-.4-.57-.59-.86-.3-.46-.61-.91-.92-1.36-.4-.58-.81-1.15-1.22-1.72-.31-.43-.63-.87-.95-1.3-.43-.57-.86-1.13-1.3-1.69-.32-.41-.64-.82-.96-1.22-.46-.57-.94-1.14-1.41-1.69-.31-.37-.62-.74-.94-1.11-.53-.61-1.08-1.2-1.63-1.79-.27-.3-.54-.6-.82-.89-.82-.87-1.65-1.71-2.5-2.54,0,0-.02-.02-.03-.03-.86-.84-1.73-1.65-2.62-2.45-.3-.27-.61-.52-.91-.79-.52-.45-1.03-.91-1.55-1.34.13-.55.25-1.09.39-1.63.13-.53.27-1.05.42-1.57.05-.18.1-.36.15-.54.09-.33.19-.67.28-1,.06-.22.13-.43.2-.65.08-.29.17-.57.26-.86.07-.23.14-.46.22-.68.08-.27.17-.53.25-.79.07-.23.15-.46.23-.68.08-.25.17-.51.25-.75.08-.23.16-.45.23-.68.08-.24.17-.48.25-.72.08-.22.16-.44.24-.66.08-.23.17-.46.25-.69.08-.22.16-.43.24-.64.08-.22.17-.44.25-.66.08-.21.16-.42.24-.62.08-.21.16-.42.24-.62.08-.2.16-.4.24-.6.08-.2.16-.4.24-.59.08-.19.16-.38.23-.57.08-.19.16-.37.23-.56.08-.18.15-.36.23-.54.08-.18.15-.35.22-.52.07-.17.15-.34.22-.5.07-.17.14-.33.21-.49.07-.16.14-.32.21-.47.07-.15.13-.29.2-.43.07-.15.14-.31.21-.45.06-.13.12-.25.17-.37.07-.15.13-.29.2-.43.02-.03.03-.06.05-.1l1.72-.18c4.02-.42,7.97-1.74,11.77-3.93.18.24.36.5.56.78,0,0,.01.02.02.03Zm11.39,15.7c-.12-.27-.25-.53-.37-.79-.18-.39-.37-.76-.56-1.14-.12-.24-.23-.48-.35-.71-.21-.42-.43-.84-.64-1.25-.09-.17-.18-.35-.27-.52-.3-.58-.61-1.14-.91-1.69-.07-.13-.14-.25-.21-.38-.23-.42-.46-.83-.69-1.23-.11-.2-.23-.39-.34-.59-.19-.32-.37-.64-.55-.95-.12-.21-.24-.4-.36-.6-.17-.29-.34-.57-.51-.84-.12-.2-.24-.39-.36-.58-.16-.26-.32-.52-.48-.78-.12-.18-.23-.37-.34-.54-.16-.25-.32-.49-.47-.73-.1-.16-.21-.32-.31-.48-.16-.25-.32-.49-.48-.72-.09-.13-.18-.26-.26-.39-.19-.29-.38-.56-.56-.82-.04-.06-.09-.12-.13-.18-.22-.32-.43-.61-.63-.89-.07-.09-.13-.18-.19-.27-.1-.15-.21-.3-.31-.43,2.61-1.7,4.22-3.26,4.59-3.63,7.28-4.81,21.89-10.6,29.24-10.6,1.05,0,1.91.12,2.56.35.58.21.91.47,1,.78.35,1.24-1.93,4.06-3.94,6.55-1.29,1.59-2.62,3.25-3.71,4.94-1.81,2.78-2.08,5.64-.82,8.73,0,0-.02.01-.03.02-.11.08-.23.17-.35.25-.14.1-.28.2-.42.31-.12.09-.25.19-.38.28-.15.11-.3.23-.46.35-.13.1-.27.21-.41.31-.16.13-.33.25-.5.38-.14.11-.29.22-.43.34-.18.14-.36.28-.54.42-.15.12-.3.24-.45.36-.19.15-.39.31-.58.47-.15.12-.3.24-.45.37-.22.18-.44.36-.66.54-.14.12-.28.23-.43.35-.27.23-.55.46-.82.7-.1.09-.2.17-.3.26-.38.33-.77.67-1.17,1.02-.08.07-.16.14-.23.21-.32.28-.64.57-.97.87-.14.12-.27.25-.41.38-.27.25-.54.5-.82.75-.16.15-.32.3-.48.45-.26.24-.52.49-.78.74-.17.16-.33.32-.5.49-.26.25-.52.51-.78.77-.17.17-.34.34-.51.51-.26.26-.53.53-.79.8-.17.17-.34.35-.51.53-.27.28-.55.57-.82.86-.16.17-.32.34-.49.52-.06.06-.11.12-.17.18h0s-.01,0-.01,0c-.05-.13-.11-.25-.16-.38-.12-.3-.25-.59-.37-.88-.17-.39-.33-.77-.5-1.16-.12-.28-.25-.57-.38-.85-.17-.38-.35-.76-.52-1.13Zm35.05,18.48c.01-.13.03-.26.04-.39.06-.57.11-1.12.15-1.67,0-.09.01-.17.02-.26.04-.48.07-.95.09-1.41,0-.11.01-.22.02-.34.03-.51.05-1.02.06-1.51,0-.09,0-.18,0-.27.01-.42.02-.84.02-1.25,0-.1,0-.2,0-.3,0-.45,0-.9,0-1.33,0-.1,0-.19,0-.29,0-.35-.02-.7-.03-1.04,0-.1,0-.2,0-.29-.02-.38-.03-.75-.05-1.11,0-.03,0-.07,0-.11,4.41,3.19,8.6,6.68,12.51,10.41-.02,0-.04,0-.07.01-.98.15-1.96.32-2.93.5-.23.04-.46.09-.68.13-.97.18-1.93.38-2.88.59-.11.02-.21.05-.32.07-.88.2-1.75.4-2.61.62-.21.05-.41.1-.62.16-.92.24-1.83.49-2.74.75-.06.02-.12.03-.17.05h0s-.02,0-.02,0c0-.06.01-.12.02-.18.07-.52.13-1.04.18-1.54Zm3.03,2.88c.11-.03.23-.06.35-.09,1.15-.3,2.31-.58,3.48-.83.04,0,.07-.01.11-.02,1.18-.26,2.38-.49,3.59-.71.07-.01.14-.03.22-.04,1.19-.21,2.38-.4,3.58-.57.08-.01.17-.02.25-.04,4.63,4.6,8.93,9.64,12.81,14.99,0,.02-.02.04-.03.06-.05.09-.1.2-.15.29-.06.13-.13.25-.19.39-.06.11-.11.23-.17.34-.07.13-.14.27-.21.4-.06.12-.13.24-.19.37-.07.14-.15.29-.23.44-.07.13-.14.26-.21.39-.08.15-.17.31-.25.46-.07.13-.15.27-.22.41-.09.16-.18.33-.28.5-.08.14-.16.28-.24.42-.1.17-.2.35-.3.53-.08.14-.16.29-.25.43-.11.19-.22.38-.33.57-.09.14-.17.28-.25.43-.12.2-.25.41-.38.62-.08.14-.16.27-.25.41-.15.24-.31.49-.46.74-.07.11-.13.21-.2.32-.23.36-.46.72-.7,1.08-.04.06-.09.13-.13.19-.2.3-.4.6-.61.9-.09.13-.18.27-.27.4-.17.24-.33.48-.5.72-.11.15-.22.3-.33.45-.16.22-.32.44-.48.67-.12.17-.25.33-.37.49-.16.21-.32.42-.48.63-.13.17-.27.35-.4.52-.1.12-.2.25-.3.38-.3-.07-.61-.13-.91-.19-.36-.08-.72-.16-1.08-.23-.42-.08-.83-.16-1.25-.23-.35-.06-.7-.13-1.05-.19-.43-.07-.85-.14-1.28-.2-.34-.05-.68-.11-1.02-.16-.44-.06-.87-.12-1.31-.17-.33-.04-.66-.09-.98-.12-.45-.05-.9-.09-1.34-.14-.32-.03-.63-.07-.95-.09-.47-.04-.93-.07-1.4-.1-.29-.02-.59-.05-.88-.06-.52-.03-1.03-.05-1.55-.07-.24-.01-.48-.03-.72-.03-.76-.02-1.51-.03-2.26-.03s-1.55.01-2.31.04c-.28,0-.55.03-.82.04-.48.02-.96.04-1.43.07-.32.02-.64.05-.95.08-.41.03-.83.06-1.24.1-.33.03-.64.07-.96.11-.34.04-.69.07-1.03.12-.23-.1-.46-.2-.69-.3.03-.05.06-.1.08-.15.49-.84.96-1.69,1.41-2.55.07-.13.14-.26.21-.39.44-.86.87-1.72,1.28-2.6.06-.13.12-.26.18-.39.41-.88.8-1.78,1.17-2.68.05-.11.09-.23.14-.34.38-.93.73-1.86,1.07-2.8.03-.08.05-.16.08-.23.35-.98.68-1.97.98-2.97,0-.01,0-.02,0-.03.31-1.01.59-2.03.85-3.05.02-.06.03-.12.05-.18.25-.99.48-1.98.69-2.98.02-.11.05-.22.07-.33.2-.97.38-1.95.54-2.93.01-.08.03-.16.05-.25.09-.03.18-.06.27-.08,1.08-.33,2.17-.63,3.27-.92Zm-32.04,17.7c-.02.26-.05.53-.08.79-.03.34-.07.68-.11,1.03-.01.12-.03.24-.04.35-1.07-.18-2.15-.33-3.22-.45.06-.06.13-.13.2-.2.13-.13.27-.27.41-.41.11-.11.23-.22.35-.34.15-.14.3-.29.46-.44.13-.12.26-.25.4-.37.16-.15.33-.3.5-.46.15-.14.3-.27.46-.41.17-.15.35-.31.53-.46.09-.07.17-.15.26-.22-.01.18-.02.35-.04.53-.02.35-.05.7-.08,1.06Zm-3.51-.95c-.11.1-.21.2-.31.3-.15.15-.31.3-.45.44-.11.11-.22.21-.32.32-.12.12-.24.24-.36.36-.11.11-.21.22-.31.32-.1.1-.19.2-.28.3-.1.11-.2.21-.3.32-.02.03-.05.06-.08.08-1.37-.11-2.52-.17-3.61-.19-1.19-.03-2.87-.09-4.98-.19-.23-.46-.46-.9-.69-1.36-.12-.23-.24-.47-.36-.7-.4-.76-.8-1.51-1.21-2.26,0-.02-.02-.04-.03-.06-.43-.77-.86-1.53-1.3-2.28-.12-.21-.25-.41-.38-.62-.27-.45-.54-.91-.81-1.35.09-.23.18-.45.27-.68.09-.22.17-.43.26-.65.13-.32.27-.65.41-.97.08-.2.17-.39.25-.59.16-.37.33-.73.5-1.1.07-.15.14-.3.21-.45.49-1.04,1.01-2.08,1.56-3.11.07-.12.14-.25.2-.37.21-.39.42-.78.64-1.17.1-.18.2-.35.3-.53.19-.34.39-.67.59-1.01.12-.2.23-.39.35-.58.19-.32.38-.63.58-.95.13-.2.26-.41.39-.61.19-.3.39-.61.58-.91.14-.21.28-.42.42-.63.2-.3.4-.59.6-.88.15-.21.3-.43.45-.64.2-.29.41-.58.62-.87.15-.21.31-.43.46-.64.21-.29.43-.58.65-.87.16-.21.32-.42.48-.64.22-.29.45-.58.67-.86.16-.21.33-.42.5-.63.23-.29.47-.58.71-.87.17-.21.34-.41.51-.62.25-.3.5-.59.75-.89.17-.19.33-.39.5-.58.05-.05.1-.11.15-.17.02.06.05.12.07.18.09.26.18.51.27.76.12.34.25.69.37,1.03.09.26.18.52.27.78.11.34.23.67.33,1.01.08.26.17.52.25.78.1.33.21.67.31,1,.08.26.15.52.23.78.1.33.19.67.28,1,.07.26.14.52.21.78.09.33.17.66.25,1,.06.26.13.51.19.77.08.33.16.67.23,1,.06.25.11.5.17.75.07.34.14.68.21,1.02.05.24.1.48.14.72.07.35.13.7.19,1.06.04.23.08.46.12.68.06.38.12.75.17,1.12.03.2.06.4.09.61.06.43.11.85.16,1.27.02.15.04.3.06.45.13,1.15.23,2.3.3,3.44,0,.13.01.25.02.38.02.44.05.88.06,1.31,0,.18,0,.36.01.54.01.38.02.76.02,1.14,0,.2,0,.41,0,.61,0,.27,0,.54,0,.81-.19.15-.36.3-.55.45-.12.1-.24.2-.36.3-.28.24-.56.47-.82.7-.07.06-.14.12-.21.18-.33.29-.64.57-.95.84-.07.07-.14.13-.21.19-.22.2-.44.4-.65.6Zm1.3-32.85c.27-.29.55-.58.82-.87.15-.16.3-.32.46-.48.36-.37.72-.73,1.08-1.09.06-.06.13-.13.19-.2.42-.42.84-.83,1.25-1.23.14-.14.28-.27.42-.41.27-.26.55-.52.82-.78.17-.16.33-.31.5-.46.24-.22.48-.45.72-.67.17-.16.34-.31.51-.46.23-.21.46-.41.68-.61.17-.15.34-.3.51-.45.22-.19.44-.38.65-.57.17-.14.33-.29.5-.42.21-.18.42-.36.63-.54.16-.13.32-.27.47-.4.21-.18.42-.34.62-.51.15-.12.3-.24.44-.36.21-.17.41-.33.61-.49.13-.11.27-.21.4-.32.23-.18.45-.35.67-.53.09-.07.19-.15.29-.22.31-.24.61-.47.89-.68.09-.07.17-.13.26-.19.2-.15.4-.3.58-.44.11-.08.22-.16.33-.24.12-.09.24-.18.36-.26,2.04,3.56,6.03,7.7,13.03,13.55l.07.06c.22.15.44.31.66.46l.04.03s0,.07,0,.1c0,.12.02.25.03.38,0,.11.02.22.02.33,0,.13.02.26.03.4,0,.12.01.24.02.36,0,.14.02.28.02.42,0,.13.01.26.02.38,0,.14.01.29.02.44,0,.14,0,.28.01.42,0,.15,0,.3.01.45,0,.14,0,.3,0,.44,0,.15,0,.31,0,.47,0,.15,0,.31,0,.47,0,.16,0,.32,0,.48,0,.17,0,.34,0,.51,0,.16,0,.31,0,.47,0,.21-.01.42-.02.63,0,.13,0,.26-.01.39-.01.34-.03.69-.04,1.05,0,.12-.01.25-.02.37-.01.24-.03.49-.04.74,0,.14-.02.28-.03.42-.02.24-.03.47-.05.71-.01.15-.03.3-.04.46-.02.24-.04.48-.06.72-.02.16-.03.32-.05.48-.02.24-.05.48-.08.73-.02.16-.04.32-.06.49-.03.25-.06.5-.1.76-.02.16-.04.32-.06.48-.02.15-.04.29-.06.44-.39.12-.76.25-1.14.38-.25.08-.5.16-.74.25-.63.22-1.25.44-1.85.66-.09.03-.18.06-.27.1-.7.26-1.38.52-2.05.79-.19.08-.37.15-.56.23-.48.2-.95.39-1.41.59-.24.1-.46.2-.7.31-.4.18-.8.36-1.2.53-.24.11-.48.22-.71.33-.37.18-.74.35-1.1.53-.23.11-.46.23-.69.34-.36.18-.71.36-1.05.54-.22.11-.44.23-.65.34-.35.18-.69.37-1.03.55-.2.11-.39.21-.58.32-.37.2-.72.41-1.07.61-.15.09-.31.18-.46.27-.48.28-.94.55-1.39.83-.02.01-.04.02-.06.04-.48.29-.95.59-1.4.88-.11.07-.21.14-.32.21-.33.22-.66.43-.98.64-.14.1-.28.19-.42.29-.27.18-.54.37-.81.55-.15.1-.29.2-.43.3-.25.18-.49.35-.72.52-.14.1-.27.2-.41.3-.09.07-.19.14-.28.2v-.04s-.04.03-.04.03c0-.3-.01-.61-.02-.92,0-.21,0-.43-.01-.64-.02-.56-.05-1.12-.08-1.69-.01-.18-.03-.37-.04-.55-.03-.39-.05-.78-.09-1.18-.02-.23-.05-.47-.07-.7-.03-.34-.07-.69-.1-1.04-.03-.25-.06-.5-.09-.75-.04-.33-.08-.67-.13-1-.04-.26-.07-.51-.11-.77-.05-.33-.1-.66-.15-.99-.04-.26-.09-.52-.13-.78-.06-.33-.12-.66-.18-.99-.05-.26-.1-.52-.15-.78-.07-.34-.14-.67-.21-1.01-.05-.26-.11-.51-.17-.77-.08-.35-.16-.69-.24-1.04-.06-.25-.12-.5-.18-.75-.09-.37-.19-.73-.28-1.1-.06-.23-.12-.46-.18-.69-.11-.42-.24-.85-.36-1.28-.05-.17-.1-.34-.15-.51-.18-.6-.36-1.2-.55-1.8-.03-.1-.07-.2-.1-.3-.16-.5-.33-1-.5-1.51-.07-.2-.14-.41-.21-.61-.14-.4-.28-.81-.43-1.21-.08-.23-.17-.46-.26-.69-.1-.27-.2-.54-.3-.82.18-.2.37-.4.55-.6.18-.19.35-.38.53-.57Zm3.94,36.04c.1-.85.19-1.69.26-2.54,0-.1.01-.2.02-.3.06-.79.1-1.58.13-2.35,0-.1.01-.19.02-.29.12-.09.24-.18.36-.28.14-.11.28-.22.42-.33.2-.15.4-.3.61-.45.15-.11.3-.22.45-.34.22-.16.44-.32.67-.48.16-.11.31-.22.47-.33.25-.17.5-.35.76-.52.15-.1.3-.21.45-.31.31-.21.63-.42.95-.63.12-.08.23-.15.34-.22.45-.29.91-.58,1.38-.87.05-.03.11-.07.17-.1.42-.26.85-.51,1.29-.77.16-.09.33-.18.49-.28.35-.2.69-.4,1.05-.59.2-.11.41-.22.61-.33.33-.18.66-.36,1.01-.54.22-.12.46-.24.69-.35.33-.17.67-.34,1.01-.51.24-.12.5-.24.75-.36.34-.16.68-.33,1.03-.49.26-.12.53-.25.8-.37.35-.16.7-.32,1.06-.47.28-.12.56-.24.85-.36.36-.15.72-.3,1.09-.45.3-.12.59-.24.9-.36.37-.15.75-.29,1.13-.43.31-.12.62-.24.94-.35.38-.14.77-.28,1.16-.41.33-.11.65-.23.98-.34.13-.04.26-.08.4-.13,0,.02,0,.04,0,.05-.16.94-.35,1.87-.55,2.79-.03.13-.06.27-.09.4-.2.9-.42,1.79-.65,2.67-.04.15-.08.3-.12.45-.24.88-.49,1.75-.76,2.61-.04.14-.09.28-.14.43-.28.88-.58,1.75-.89,2.61-.04.11-.08.21-.12.32-.33.9-.68,1.79-1.05,2.68-.01.03-.02.05-.03.08-.37.88-.76,1.76-1.17,2.63-.04.08-.07.16-.11.24-.4.84-.82,1.67-1.25,2.5-.07.12-.13.25-.2.38-.43.8-.87,1.59-1.33,2.38-.04.07-.08.14-.12.21-5.41-2.22-10.82-3.86-16.12-4.88.01-.1.02-.19.03-.29Zm-44.43-35.57c-.56-.42-1.12-.83-1.68-1.22-.09-.06-.17-.12-.26-.18-.52-.36-1.04-.72-1.55-1.06-.08-.05-.16-.11-.24-.16-.56-.37-1.11-.73-1.66-1.07-.11-.07-.22-.14-.33-.21-1.12-.7-2.23-1.36-3.32-1.97-.11-.06-.21-.12-.32-.18-.53-.3-1.06-.58-1.58-.86-.08-.04-.16-.08-.23-.12-.48-.25-.96-.5-1.43-.74-.08-.04-.16-.08-.24-.12-.51-.25-1.01-.49-1.51-.73-.1-.05-.21-.1-.31-.15-.5-.23-.99-.46-1.48-.68,0,0,0,0-.01,0-.49-.22-.97-.42-1.45-.62-.1-.04-.21-.09-.31-.13-.46-.19-.91-.37-1.35-.55-.08-.03-.15-.06-.23-.09-.4-.16-.8-.31-1.19-.45-.08-.03-.16-.06-.23-.09-.42-.16-.83-.3-1.24-.45-.1-.03-.19-.07-.28-.1-.39-.14-.78-.27-1.16-.39-.02,0-.04-.01-.05-.02-.39-.13-.77-.25-1.14-.36-.04-.01-.09-.03-.14-.04.06-.01.12-.03.19-.04.74-.16,1.47-.31,2.21-.46.1-.02.2-.04.31-.06.75-.15,1.51-.3,2.26-.45.02,0,.03,0,.05,0,.76-.15,1.51-.29,2.27-.42.12-.02.23-.04.35-.06.73-.13,1.45-.26,2.17-.38.11-.02.23-.04.34-.06,1.48-.25,2.94-.49,4.37-.71.11-.02.22-.03.33-.05.68-.11,1.36-.21,2.02-.31.13-.02.25-.04.38-.05.67-.1,1.33-.19,1.98-.29.07-.01.14-.02.21-.03.61-.08,1.22-.17,1.81-.25.11-.01.22-.03.32-.04.61-.08,1.2-.16,1.79-.23.14-.02.28-.04.42-.05.57-.07,1.14-.14,1.69-.21.11-.01.21-.03.32-.04.51-.06,1.01-.12,1.5-.18.08-.01.17-.02.25-.03.53-.06,1.04-.12,1.54-.18.12-.01.24-.03.36-.04.48-.05.96-.11,1.41-.16.1,0,.19-.02.28-.03,1-.11,1.93-.21,2.77-.29,0,0,0,0,0,0-.04.09-.09.2-.13.29-.08.19-.17.38-.26.58-.05.12-.11.25-.17.38-.08.19-.16.38-.25.57-.06.13-.12.27-.18.41-.09.2-.17.4-.26.61-.06.15-.12.29-.19.44-.09.21-.18.43-.27.65-.06.15-.12.3-.19.46-.1.24-.19.48-.29.72-.06.15-.12.29-.18.44-.11.28-.23.58-.34.87-.04.12-.09.23-.13.35-.16.42-.32.84-.48,1.28-.01.03-.02.06-.03.09-.15.4-.3.81-.45,1.23-.05.14-.1.28-.15.42-.11.31-.22.62-.33.94-.06.17-.12.34-.17.52-.1.29-.2.59-.3.89-.06.19-.12.37-.18.56-.1.3-.19.59-.29.9-.06.19-.12.38-.18.57-.1.31-.19.62-.28.94-.06.19-.11.37-.17.56-.1.34-.2.69-.3,1.04-.04.16-.09.32-.13.48-.14.51-.28,1.03-.41,1.55-.06.24-.12.48-.18.72h-.01s0,0,0,0c-.57-.45-1.15-.89-1.72-1.32-.12-.09-.23-.17-.35-.26Zm21.08,33.23c.03-.14.07-.28.1-.42.16-.65.34-1.3.53-1.94.04-.14.09-.29.13-.43.17-.57.34-1.13.53-1.69.04-.12.08-.24.12-.37.02-.06.04-.12.06-.17.04.07.09.14.13.21.53.9,1.05,1.8,1.56,2.72.09.16.18.33.27.49.42.77.84,1.55,1.24,2.34.06.12.12.25.19.37-1.6-.08-3.31-.18-5.05-.27.06-.28.12-.56.19-.84Zm-52.24-44.51s0,.09-.01.13c-.04.35-.08.72-.11,1.1,0,.04,0,.08-.01.12-.04.4-.07.82-.1,1.25,0,.08-.01.15-.02.23-.03.43-.06.87-.08,1.33,0,.09,0,.19-.01.28-.02.46-.04.93-.06,1.42,0,.1,0,.2,0,.29-.01.5-.02,1.01-.03,1.54,0,.08,0,.16,0,.23,0,.55,0,1.11,0,1.69,0,.02,0,.04,0,.06,0,.58.02,1.18.05,1.79,0,.08,0,.17,0,.25.02.59.05,1.19.09,1.8,0,.11.01.22.02.34.04.61.09,1.23.14,1.86,0,.12.02.23.03.35.06.65.12,1.3.2,1.97.01.09.02.19.03.28.08.7.17,1.42.27,2.14,0,.02,0,.04,0,.05.1.72.22,1.46.34,2.2.01.08.03.17.04.25.12.72.26,1.45.4,2.2.02.12.05.24.07.36.15.73.3,1.47.47,2.22.03.13.06.25.09.38.18.76.36,1.53.56,2.31.03.1.05.2.08.3.21.82.44,1.64.68,2.47,0,0,0,0,0,0h-.01s0,0,0,0c-.47-.05-.95-.1-1.42-.14-.13-.01-.27-.03-.4-.04-.86-.08-1.73-.15-2.6-.2-.36-.02-.73-.05-1.09-.07-.54-.03-1.08-.05-1.62-.08-.79-.03-1.57-.05-2.36-.07-.19,0-.37,0-.56,0-.44,0-.89-.02-1.33-.02-5.35,0-10.36.42-14.96,1.24-.22.04-.44.08-.66.12-.35.07-.7.13-1.05.2-.62.12-1.23.26-1.83.4-.72.17-1.45.36-2.18.56-.23.06-.45.13-.68.19-.33.09-.65.18-.98.28-.09-.26-.19-.52-.27-.79-.12-.34-.23-.68-.34-1.02-.14-.43-.27-.87-.4-1.3-.1-.33-.2-.67-.3-1.01-.13-.46-.25-.92-.37-1.38-.09-.32-.17-.64-.25-.97-.13-.5-.24-1.01-.36-1.52-.07-.29-.14-.58-.2-.88-.13-.62-.25-1.24-.37-1.86-.04-.19-.08-.38-.11-.57-.15-.82-.28-1.64-.41-2.47-.03-.21-.06-.43-.09-.65-.09-.62-.17-1.24-.24-1.86-.04-.31-.06-.63-.1-.94-.05-.45-.09-.91-.13-1.36,3.82-3.6,8.01-6.6,12.79-9.15,5.54-2.95,12.86-5.59,21.75-7.85Zm152.42,89.66c1.36,1.12,6.83,5.67,12.46,11.06.67.65,1.37,1.4,2.08,2.22-2.69-.29-5.63.23-8.69,1.59-1.56.69-2.91,1.48-3.95,2.17-3.9-.64-7.73-.37-10.29.67,5.08-6.01,7.41-13.5,8.38-17.71Z"/>
  </g>
</svg>