<?xml version="1.0" encoding="UTF-8"?>
<svg id="Layer_1" data-name="Layer 1" xmlns="http://www.w3.org/2000/svg" viewBox="0 0 318.84 141.71">
  <defs>
    <style>
      .cls-1 {
        fill: #010101;
      }

      .cls-2 {
        fill: #f285b6;
      }

      .cls-3 {
        fill: #fdbb38;
      }

      .cls-4 {
        fill: #5bb6e7;
      }
    </style>
  </defs>
  <path class="cls-2" d="M35.28,70.86V34.79c2.31,.01,15.7,.3,26,11.34,9.38,10.04,9.72,22.04,9.73,24.72H35.28Z"/>
  <polygon class="cls-4" points="106.28 106.28 106.28 141.71 141.71 141.71 106.28 106.28"/>
  <path class="cls-3" d="M177.14,141.71c4.56-.04,32.32-.75,52.8-23.61,17.22-19.23,18.02-41.54,18.05-47.25,.08,2.7,.71,14.58,10.33,24.45,10.03,10.28,22.54,10.91,25.1,10.98-2.17,.13-20.56,1.54-30.19,16.88-4.59,7.32-5.22,14.67-5.24,18.55h-70.85Z"/>
  <path class="cls-1" d="M35.43,0h0s-35.43,0-35.43,0V70.86c0,19.57,15.86,35.43,35.43,35.43v0s35.43-35.43,35.43-35.43H35.43V35.43h0c19.57,0,35.43,15.86,35.43,35.43h35.43C106.28,31.72,74.56,0,35.43,0Z"/>
  <polygon class="cls-1" points="35.43 141.71 106.28 141.71 106.28 106.28 141.71 141.71 177.14 141.71 106.28 70.86 35.43 141.71"/>
  <path class="cls-1" d="M177.14,0H106.28V70.86C106.28,31.72,138.01,0,177.14,0Z"/>
  <path class="cls-1" d="M318.84,70.86h-70.85V35.43h-70.85c-19.57,0-35.43,15.86-35.43,35.43l35.43,35.43v-35.43h35.43c0,19.57-15.86,35.43-35.43,35.43v35.43c39.13,0,70.85-31.72,70.85-70.85,0,19.57,15.86,35.43,35.43,35.43s35.43-15.86,35.43-35.43Z"/>
  <path class="cls-1" d="M247.99,0C287.12,0,318.84,31.72,318.84,70.86V0h-70.85Z"/>
  <path class="cls-1" d="M247.99,141.71h0s70.85,0,70.85,0c0-19.57-15.86-35.43-35.43-35.43s-35.43,15.86-35.43,35.43Z"/>
</svg>