<svg xmlns="http://www.w3.org/2000/svg" width="67.577" height="67.577" viewBox="0 0 67.577 67.577">
  <g id="Group_183" data-name="Group 183" transform="translate(-123 -226.423)">
    <rect id="Rectangle_140" data-name="Rectangle 140" width="13.922" height="7.913" transform="translate(149.523 260.083)" fill="none" stroke="#fff" stroke-miterlimit="10" stroke-width="2"/>
    <ellipse id="Ellipse_13" data-name="Ellipse 13" cx="2.834" cy="2.749" rx="2.834" ry="2.749" transform="translate(153.722 250.499)" fill="none" stroke="#fff" stroke-miterlimit="10" stroke-width="2"/>
    <circle id="Ellipse_14" data-name="Ellipse 14" cx="6.289" cy="6.289" r="6.289" transform="translate(177.662 281.423)" fill="#fff"/>
    <circle id="Ellipse_15" data-name="Ellipse 15" cx="3.21" cy="3.21" r="3.21" transform="translate(182.58 265.012)" fill="#fff"/>
    <circle id="Ellipse_16" data-name="Ellipse 16" cx="3.21" cy="3.21" r="3.21" transform="translate(182.58 249.765)" fill="#fff"/>
    <circle id="Ellipse_17" data-name="Ellipse 17" cx="3.21" cy="3.21" r="3.21" transform="translate(124 263.407)" fill="#fff"/>
    <circle id="Ellipse_18" data-name="Ellipse 18" cx="3.21" cy="3.21" r="3.21" transform="translate(124 248.16)" fill="#fff"/>
    <circle id="Ellipse_19" data-name="Ellipse 19" cx="3.21" cy="3.21" r="3.21" transform="translate(162.519 286.679)" fill="#fff"/>
    <circle id="Ellipse_20" data-name="Ellipse 20" cx="3.21" cy="3.21" r="3.21" transform="translate(145.667 286.679)" fill="#fff"/>
    <circle id="Ellipse_21" data-name="Ellipse 21" cx="3.21" cy="3.21" r="3.21" transform="translate(160.914 228.901)" fill="#fff"/>
    <circle id="Ellipse_22" data-name="Ellipse 22" cx="3.21" cy="3.21" r="3.21" transform="translate(145.667 228.901)" fill="#fff"/>
    <circle id="Ellipse_23" data-name="Ellipse 23" cx="6.289" cy="6.289" r="6.289" transform="translate(124 281.423)" fill="#fff"/>
    <circle id="Ellipse_24" data-name="Ellipse 24" cx="6.289" cy="6.289" r="6.289" transform="translate(123 226.423)" fill="#fff"/>
    <circle id="Ellipse_25" data-name="Ellipse 25" cx="6.289" cy="6.289" r="6.289" transform="translate(178 227.423)" fill="#fff"/>
    <circle id="Ellipse_26" data-name="Ellipse 26" cx="17.88" cy="17.88" r="17.88" transform="translate(138.69 243.239)" fill="none" stroke="#fff" stroke-miterlimit="10" stroke-width="2"/>
    <line id="Line_50" data-name="Line 50" y1="15" x2="15" transform="translate(129 274)" fill="none" stroke="#fff" stroke-miterlimit="10" stroke-width="2"/>
    <line id="Line_51" data-name="Line 51" x1="16" y1="16" transform="translate(169 273)" fill="none" stroke="#fff" stroke-miterlimit="10" stroke-width="2"/>
    <line id="Line_52" data-name="Line 52" x1="16" y2="16" transform="translate(169 233)" fill="none" stroke="#fff" stroke-miterlimit="10" stroke-width="2"/>
    <line id="Line_53" data-name="Line 53" x2="16" y2="16" transform="translate(128 232)" fill="none" stroke="#fff" stroke-miterlimit="10" stroke-width="2"/>
    <line id="Line_54" data-name="Line 54" x2="12.29" y2="4.13" transform="translate(127.21 251.37)" fill="none" stroke="#fff" stroke-miterlimit="10" stroke-width="0.75"/>
    <line id="Line_55" data-name="Line 55" y1="1.117" x2="12.29" transform="translate(127.21 265.5)" fill="none" stroke="#fff" stroke-miterlimit="10" stroke-width="0.75"/>
    <line id="Line_56" data-name="Line 56" x1="12.29" y2="3.525" transform="translate(173.5 252.975)" fill="none" stroke="#fff" stroke-miterlimit="10" stroke-width="0.75"/>
    <line id="Line_57" data-name="Line 57" x1="11.29" y1="2.722" transform="translate(174.5 265.5)" fill="none" stroke="#fff" stroke-miterlimit="10" stroke-width="0.75"/>
    <line id="Line_58" data-name="Line 58" y1="11.988" x2="2.025" transform="translate(148.475 277.5)" fill="none" stroke="#fff" stroke-miterlimit="10" stroke-width="0.75"/>
    <line id="Line_59" data-name="Line 59" x1="1.827" y1="11.988" transform="translate(163.5 277.5)" fill="none" stroke="#fff" stroke-miterlimit="10" stroke-width="0.75"/>
    <line id="Line_60" data-name="Line 60" x2="2.025" y2="12.79" transform="translate(148.475 231.71)" fill="none" stroke="#fff" stroke-miterlimit="10" stroke-width="0.75"/>
    <line id="Line_61" data-name="Line 61" x1="1.222" y2="12.79" transform="translate(162.5 231.71)" fill="none" stroke="#fff" stroke-miterlimit="10" stroke-width="0.75"/>
  </g>
</svg>
