<svg xmlns="http://www.w3.org/2000/svg" xmlns:xlink="http://www.w3.org/1999/xlink" width="284" height="69" viewBox="0 0 284 69">
  <defs>
    <clipPath id="clip-ConnecPlus">
      <rect width="284" height="69"/>
    </clipPath>
  </defs>
  <g id="ConnecPlus" clip-path="url(#clip-ConnecPlus)">
    <g id="Group_3" data-name="Group 3">
      <path id="Path_14" data-name="Path 14" d="M0,37.9C0,27.009,7.818,18.855,19.555,18.855c10.058,0,16.764,5.975,17.675,14.338H24.517c-.7-3.232-2.233-5.059-5.1-5.059-4.052,0-6.006,3.725-6.006,9.768,0,5.975,2.1,9.628,6.145,9.628,3.215,0,4.82-2.179,5.17-6.256H37.434c0,8.858-7.2,15.6-17.882,15.6C7.821,56.878,0,48.8,0,37.9Z" transform="translate(0 12.121)" fill="#fff"/>
      <path id="Path_15" data-name="Path 15" d="M23.764,37.9c0-10.893,7.685-19.047,19.558-19.047S62.738,27.009,62.738,37.9,55.2,56.878,43.322,56.878,23.764,48.8,23.764,37.9Zm25.564,0c0-6.044-2.094-10.121-6.145-10.121S37.177,31.859,37.177,37.9s1.955,10.121,6.006,10.121S49.328,43.946,49.328,37.9Z" transform="translate(15.277 12.121)" fill="#fff"/>
      <path id="Path_16" data-name="Path 16" d="M62.045,24.858h.207c2.865-3.937,6.5-6.044,11.455-6.044,8.243,0,12.505,5.551,12.505,13.773V55.78H73.024V35.823c0-3.725-1.536-6.187-4.959-6.187-3.351,0-5.377,2.952-5.377,6.82V55.78h-13.2V19.939H62.062Z" transform="translate(31.812 12.095)" fill="#fff"/>
      <path id="Path_17" data-name="Path 17" d="M87.14,24.858h.211c2.862-3.937,6.5-6.044,11.455-6.044,8.243,0,12.5,5.551,12.5,13.773V55.78H98.1V35.823c0-3.725-1.536-6.187-4.959-6.187-3.351,0-5.377,2.952-5.377,6.82V55.78H74.57V19.939H87.146Z" transform="translate(47.938 12.095)" fill="#fff"/>
      <path id="Path_18" data-name="Path 18" d="M98.76,37.811c0-10.822,7.747-19.03,19-19.03a18.586,18.586,0,0,1,13.13,4.85c4.331,4.005,6.356,10.4,6.218,17.5H111.681c.767,4.145,3,6.676,6.984,6.676a5.26,5.26,0,0,0,4.96-2.671h12.795c-.769,3.232-3.284,6.4-6.775,8.646A20.017,20.017,0,0,1,118.26,56.8C106.581,56.787,98.76,48.776,98.76,37.811Zm12.917-3.725h12.294c-.56-4.005-2.795-6.4-5.937-6.4-3.631,0-5.653,2.459-6.353,6.4Z" transform="translate(63.489 12.073)" fill="#fff"/>
      <path id="Path_19" data-name="Path 19" d="M123.2,37.9c0-10.893,7.818-19.047,19.555-19.047,10.058,0,16.764,5.975,17.676,14.338H147.723c-.7-3.232-2.233-5.059-5.1-5.059-4.051,0-6,3.725-6,9.768,0,5.975,2.1,9.628,6.144,9.628,3.215,0,4.82-2.179,5.17-6.256h12.712c0,8.858-7.2,15.6-17.883,15.6C131.027,56.878,123.2,48.8,123.2,37.9Z" transform="translate(79.204 12.121)" fill="#fff"/>
      <path id="Path_20" data-name="Path 20" d="M148.422,27.594v8.034h23.95V27.594Z" transform="translate(95.415 17.739)" fill="#fff"/>
      <path id="Path_21" data-name="Path 21" d="M153.282,46.8h7.984V22.7h-7.984Z" transform="translate(98.539 14.596)" fill="#fff"/>
      <path id="Path_22" data-name="Path 22" d="M16.27,9.2a3.919,3.919,0,0,0-4.021-3.42c-3.542,0-4.677,3.249-4.677,6.375s1.135,6.389,4.677,6.389c2.546,0,3.6-1.71,4.055-3.868h7.138c0,4.682-4.375,9.659-10.982,9.659C4.955,24.332.472,19.03.472,12.169.472,5.1,5.377,0,12.46,0,18.415,0,22.7,3.383,23.337,9.207Z" transform="translate(0.303)" fill="#fff"/>
      <path id="Path_23" data-name="Path 23" d="M44.834,4.193h-6.4V21.075h6.4Z" transform="translate(24.707 2.695)" fill="#fff"/>
      <path id="Path_24" data-name="Path 24" d="M50.8.331H44.4V23.555h6.4Z" transform="translate(28.546 0.213)" fill="#fff"/>
      <path id="Path_25" data-name="Path 25" d="M38.433,6.057V.331h6.676Z" transform="translate(24.707 0.213)" fill="#fff"/>
      <path id="Path_26" data-name="Path 26" d="M32.54,14.211c.173,2.1,1.36,3.536,3.328,3.536a3.184,3.184,0,0,0,2.92-1.638H44.43c-1.1,3.762-4.854,5.852-8.436,5.852-5.693,0-9.6-3.547-9.6-9.146a8.922,8.922,0,0,1,9.177-9.235c6.417,0,9.368,4.5,9.368,9.235a6.159,6.159,0,0,1-.143,1.4Zm6.261-3.42A2.9,2.9,0,0,0,38,8.673a2.864,2.864,0,0,0-2.071-.888,3.15,3.15,0,0,0-3.362,3.006Z" transform="translate(16.97 2.302)" fill="#fff"/>
      <path id="Path_27" data-name="Path 27" d="M21.544,8.068a7.229,7.229,0,0,1,5.1-1.83c3.154,0,5.962,1.854,5.962,5.726V23.541H26.2V14.71c0-1.953-.34-3.318-2.23-3.318-1.067,0-2.424.735-2.424,3.345v8.817H15.13V.331h6.4Z" transform="translate(9.727 0.213)" fill="#fff"/>
    </g>
  </g>
</svg>
