<?xml version="1.0" encoding="UTF-8"?>
<svg id="Layer_2" data-name="Layer 2" xmlns="http://www.w3.org/2000/svg" viewBox="0 0 64.53 63.94">
  <defs>
    <style>
      .cls-1 {
        stroke-linecap: round;
        stroke-width: 1.5px;
      }

      .cls-1, .cls-2, .cls-3 {
        fill: none;
        stroke: #fff;
        stroke-miterlimit: 10;
      }

      .cls-2 {
        stroke-width: 2px;
      }

      .cls-4 {
        fill: #fff;
        stroke-width: 0px;
      }

      .cls-3 {
        stroke-width: .5px;
      }
    </style>
  </defs>
  <g id="Layer_4" data-name="Layer 4">
    <g>
      <g>
        <circle class="cls-1" cx="32.41" cy="33.59" r="17.14"/>
        <ellipse class="cls-1" cx="32.41" cy="33.59" rx="10.19" ry="17.14"/>
        <g>
          <path class="cls-1" d="m45.62,22.68c-3.87,1-8.62,1.59-13.75,1.59-4.74,0-9.16-.5-12.85-1.37"/>
          <path class="cls-1" d="m19.01,44.29c3.69-.87,8.11-1.37,12.85-1.37,5.13,0,9.88.59,13.75,1.59"/>
        </g>
        <line class="cls-1" x1="32.41" y1="16.46" x2="32.41" y2="50.73"/>
        <line class="cls-1" x1="15.27" y1="33.59" x2="49.51" y2="33.59"/>
      </g>
      <path class="cls-4" d="m58.1,21.36c2.16,0,3.92,1.76,3.92,3.92s-1.76,3.92-3.92,3.92-3.92-1.76-3.92-3.92,1.76-3.92,3.92-3.92m0-2.5c-3.55,0-6.42,2.88-6.42,6.42s2.88,6.42,6.42,6.42,6.42-2.88,6.42-6.42-2.88-6.42-6.42-6.42h0Z"/>
      <circle class="cls-4" cx="58.1" cy="41.95" r="3.34"/>
      <circle class="cls-4" cx="32.26" cy="60.6" r="3.34"/>
      <circle class="cls-4" cx="6.42" cy="41.95" r="3.34"/>
      <circle class="cls-4" cx="16.09" cy="11.49" r="3.34"/>
      <circle class="cls-4" cx="48.23" cy="11.33" r="3.34"/>
      <path class="cls-4" d="m32.41,2.5c2.16,0,3.92,1.76,3.92,3.92s-1.76,3.92-3.92,3.92-3.92-1.76-3.92-3.92,1.76-3.92,3.92-3.92m0-2.5c-3.55,0-6.42,2.88-6.42,6.42s2.88,6.42,6.42,6.42,6.42-2.88,6.42-6.42-2.88-6.42-6.42-6.42h0Z"/>
      <path class="cls-4" d="m6.42,21.36c2.16,0,3.92,1.76,3.92,3.92s-1.76,3.92-3.92,3.92-3.92-1.76-3.92-3.92,1.76-3.92,3.92-3.92m0-2.5c-3.55,0-6.42,2.88-6.42,6.42s2.88,6.42,6.42,6.42,6.42-2.88,6.42-6.42-2.88-6.42-6.42-6.42h0Z"/>
      <path class="cls-4" d="m16.45,51.65c2.16,0,3.92,1.76,3.92,3.92s-1.76,3.92-3.92,3.92-3.92-1.76-3.92-3.92,1.76-3.92,3.92-3.92m0-2.5c-3.55,0-6.42,2.88-6.42,6.42s2.88,6.42,6.42,6.42,6.42-2.88,6.42-6.42-2.88-6.42-6.42-6.42h0Z"/>
      <path class="cls-4" d="m48.23,51.65c2.16,0,3.92,1.76,3.92,3.92s-1.76,3.92-3.92,3.92-3.92-1.76-3.92-3.92,1.76-3.92,3.92-3.92m0-2.5c-3.55,0-6.42,2.88-6.42,6.42s2.88,6.42,6.42,6.42,6.42-2.88,6.42-6.42-2.88-6.42-6.42-6.42h0Z"/>
      <line class="cls-3" x1="48.23" y1="11.49" x2="42.42" y2="19.61"/>
      <line class="cls-3" x1="16.09" y1="11.33" x2="22.21" y2="19.69"/>
      <line class="cls-2" x1="52.92" y1="26.96" x2="48.71" y2="28.32"/>
      <line class="cls-3" x1="58.1" y1="41.95" x2="48.7" y2="38.9"/>
      <line class="cls-2" x1="45.05" y1="51.16" x2="42.42" y2="47.5"/>
      <line class="cls-2" x1="19.58" y1="51.26" x2="22.21" y2="47.63"/>
      <line class="cls-3" x1="32.41" y1="60.6" x2="32.41" y2="50.73"/>
      <line class="cls-2" x1="32.41" y1="11.49" x2="32.41" y2="16.46"/>
      <line class="cls-2" x1="11.59" y1="26.85" x2="16.1" y2="28.31"/>
      <line class="cls-3" x1="6.42" y1="41.95" x2="16.09" y2="38.84"/>
    </g>
  </g>
</svg>