<svg xmlns="http://www.w3.org/2000/svg" width="64.805" height="64.4" viewBox="0 0 64.805 64.4">
  <g id="Group_170" data-name="Group 170" transform="translate(-1112.031 -482.517)">
    <path id="Path_217" data-name="Path 217" d="M1145.526,500.607a15.189,15.189,0,1,0,15.189,15.189A15.3,15.3,0,0,0,1145.526,500.607Zm0,26.326a11.139,11.139,0,1,1,11.139-11.139A11.237,11.237,0,0,1,1145.526,526.933Z" transform="translate(-1.091 -1.079)" fill="#fff"/>
    <path id="Path_218" data-name="Path 218" d="M1170.964,531.729l-3.848-5.873a18.993,18.993,0,0,0,1.215-3.037l6.886-1.418a1.973,1.973,0,0,0,1.619-2.026v-9.316a1.972,1.972,0,0,0-1.619-2.025l-6.886-1.417q-.607-1.519-1.215-3.038l3.848-5.873a2.145,2.145,0,0,0-.2-2.633l-6.481-6.48a2.122,2.122,0,0,0-2.632-.2l-5.874,3.848a19.086,19.086,0,0,0-3.037-1.215l-1.418-6.885a1.971,1.971,0,0,0-2.025-1.62h-9.316a1.973,1.973,0,0,0-2.026,1.62l-1.619,6.683-3.037,1.215-5.873-3.848a2.15,2.15,0,0,0-2.633.405l-6.48,6.48a2.15,2.15,0,0,0-.405,2.633l3.848,5.873a19.04,19.04,0,0,0-1.216,3.038l-6.885,1.417a1.974,1.974,0,0,0-1.62,2.026v9.316a1.974,1.974,0,0,0,1.62,2.026l6.885,1.416,1.216,3.037-3.848,5.873a2.145,2.145,0,0,0,.2,2.633l6.48,6.48a2.123,2.123,0,0,0,2.633.2l5.873-3.848a19.133,19.133,0,0,0,3.038,1.215l1.417,6.885a1.973,1.973,0,0,0,2.026,1.62h9.317a1.973,1.973,0,0,0,2.026-1.62l1.417-6.885,3.038-1.215,5.873,3.848a2.145,2.145,0,0,0,2.633-.2l6.48-6.48a1.971,1.971,0,0,0,.606-2.632Zm-8.506,5.062-5.671-3.645a1.843,1.843,0,0,0-2.026,0,17.153,17.153,0,0,1-4.455,1.822,1.964,1.964,0,0,0-1.418,1.62l-1.416,6.481H1141.6l-1.418-6.48a1.961,1.961,0,0,0-1.418-1.62,17.233,17.233,0,0,1-4.456-1.822,1.838,1.838,0,0,0-2.025,0l-5.672,3.645-4.252-4.252,3.645-5.671a1.838,1.838,0,0,0,0-2.025,17.22,17.22,0,0,1-1.823-4.456,1.963,1.963,0,0,0-1.62-1.418l-6.48-1.215v-5.873l6.48-1.417a1.963,1.963,0,0,0,1.62-1.418,17.208,17.208,0,0,1,1.823-4.456,1.839,1.839,0,0,0,0-2.026l-3.644-5.873,4.252-4.253,5.671,3.646a1.843,1.843,0,0,0,2.026,0,17.152,17.152,0,0,1,4.456-1.822,1.964,1.964,0,0,0,1.418-1.62l1.214-6.278h5.873l1.418,6.48a1.961,1.961,0,0,0,1.418,1.619,17.187,17.187,0,0,1,4.455,1.823,1.843,1.843,0,0,0,2.026,0l5.671-3.646,4.253,4.253-3.646,5.67a1.843,1.843,0,0,0,0,2.026,17.13,17.13,0,0,1,1.822,4.456,1.965,1.965,0,0,0,1.62,1.418l6.48,1.417v5.873l-6.48,1.418a1.962,1.962,0,0,0-1.62,1.418,17.17,17.17,0,0,1-1.822,4.456,1.843,1.843,0,0,0,0,2.026l3.646,5.671Z" fill="#fff"/>
  </g>
</svg>
