<svg xmlns="http://www.w3.org/2000/svg" width="58" height="67" viewBox="0 0 58 67">
  <g id="Group_184" data-name="Group 184" transform="translate(-1133 -809)">
    <path id="Path_243" data-name="Path 243" d="M1182.5,830.147c0-10.575-5.785-19.147-12.922-19.147s-12.921,8.572-12.921,19.147" transform="translate(-8.282)" fill="none" stroke="#fff" stroke-miterlimit="10" stroke-width="4"/>
    <path id="Rectangle_141" data-name="Rectangle 141" d="M0,0H54a0,0,0,0,1,0,0V41.032A6.968,6.968,0,0,1,47.032,48H7.19A7.19,7.19,0,0,1,0,40.81V0A0,0,0,0,1,0,0Z" transform="translate(1135 826)" fill="none" stroke="#fff" stroke-miterlimit="10" stroke-width="4"/>
    <path id="Path_244" data-name="Path 244" d="M1148.5,881.441l6.177-10.5,8.647,3.088,6.794-9.265,9.266-2.444,4.323-6.82" transform="translate(-5.162 -17.015)" fill="none" stroke="#fff" stroke-miterlimit="10" stroke-width="3"/>
    <path id="Path_245" data-name="Path 245" d="M1200.309,852.412l4.551-1.479,1.479,4.551" transform="translate(-24.971 -15.268)" fill="#fff"/>
  </g>
</svg>
