<?xml version="1.0" encoding="UTF-8"?>
<svg id="Layer_1" data-name="Layer 1" xmlns="http://www.w3.org/2000/svg" viewBox="0 0 943.04 685.2">
  <defs>
    <style>
      .cls-1 {
        fill: #fff;
      }
    </style>
  </defs>
  <polygon class="cls-1" points="590.04 30.84 560.5 30.84 22.42 570.13 54.49 570.13 590.04 30.84"/>
  <polygon class="cls-1" points="241.98 307.86 212.12 307.86 135.08 386.17 164.69 386.17 241.98 307.86"/>
  <polygon class="cls-1" points="263.39 213.4 233.22 213.4 63.25 386.17 92.86 386.17 263.39 213.4"/>
  <polygon class="cls-1" points="586 177.17 555.99 177.58 250.9 485.74 281.03 485.74 586 177.17"/>
  <polygon class="cls-1" points="661.54 30.84 632.43 30.84 160.89 504.94 190.74 504.94 661.54 30.84"/>
  <polygon class="cls-1" points="773.88 61.74 746.08 61.74 157.81 654.36 188.05 654.36 773.88 61.74"/>
  <polygon class="cls-1" points="916.71 61.74 887.17 61.74 390.53 565.59 420.17 565.59 916.71 61.74"/>
  <polygon class="cls-1" points="805.82 102.42 776.71 102.42 277.07 606.35 306.23 607.02 805.82 102.42"/>
</svg>