<svg id="Layer_1" data-name="Layer 1" xmlns="http://www.w3.org/2000/svg" viewBox="0 0 864 370.8">
  <defs>
    <style>
      .cls-1 {
        fill: #fff;
      }
    </style>
  </defs>
  <polygon class="cls-1" points="380.7 128.6 350.9 127.4 137.8 341 169.8 341 380.7 128.6"/>
  <polygon class="cls-1" points="789.6 1 759.8 -0.3 673.8 85.9 705.3 85.9 789.6 1"/>
  <polygon class="cls-1" points="436.3 -0.3 405.8 -0.3 114 296.3 143.6 296.3 436.3 -0.3"/>
  <polygon class="cls-1" points="366.2 0 335.4 0 0 341 29.6 341 366.2 0"/>
  <polygon class="cls-1" points="648.4 0.3 618.9 0.3 252.1 370.8 282.2 370.8 648.4 0.3"/>
  <polygon class="cls-1" points="578.5 0.3 549.4 0.3 328.2 222.7 357.6 222.8 578.5 0.3"/>
  <polygon class="cls-1" points="717.2 0.8 689.5 0.8 325.1 367.8 354.4 367.8 717.2 0.8"/>
  <polygon class="cls-1" points="860.5 0.6 830.9 0.6 658.6 175.5 688.7 174.9 860.5 0.6"/>
</svg>
