<svg xmlns="http://www.w3.org/2000/svg" width="88.026" height="62.211" viewBox="0 0 88.026 62.211">
  <g id="Group_167" data-name="Group 167" transform="translate(-203.282 -460.689)">
    <path id="Path_209" data-name="Path 209" d="M291.193,477.862l-4.456,10.616a1.805,1.805,0,0,1-3.079.387l-2.271-3.005-5.85,4.419L257.493,466.4l-15.4,11.636,21.367,28.284L241.506,522.9l-21.367-28.284-14.384,10.866-2.473-3.274,17.658-13.34,21.367,28.284,15.4-11.636-21.367-28.284,21.9-16.543,18.043,23.884,2.577-1.946-2.271-3.006a1.806,1.806,0,0,1,1.214-2.856l11.43-1.385a1.858,1.858,0,0,1,1.959,2.482Z" transform="translate(0 0)" fill="#fff"/>
    <path id="Path_210" data-name="Path 210" d="M231.26,529.711l-4.616,3.487-3.487-4.616-2.576,1.946,3.487,4.616-4.616,3.487,1.946,2.576,4.616-3.486,3.487,4.616,2.577-1.946-3.487-4.615,4.616-3.487Z" transform="translate(-5.223 -21.932)" fill="#fff"/>
    <path id="Path_211" data-name="Path 211" d="M287.211,488.027l-3.864,2.919-2.96-3.918-2.63,1.987,2.96,3.918-3.865,2.919,1.946,2.577,3.864-2.92,2.96,3.918,2.63-1.987-2.96-3.918,3.865-2.92Z" transform="translate(-23.766 -8.508)" fill="#fff"/>
    <path id="Path_212" data-name="Path 212" d="M251.417,508.765a6.457,6.457,0,1,0,9.044,1.26A6.46,6.46,0,0,0,251.417,508.765Zm5.838,7.728a3.229,3.229,0,0,1-3.893-5.152,3.188,3.188,0,0,1,4.523.63A3.274,3.274,0,0,1,257.255,516.494Z" transform="translate(-14.721 -15.109)" fill="#fff"/>
  </g>
</svg>
